<svg xmlns="http://www.w3.org/2000/svg">
    <defs>
        <symbol id="marker" width="18" height="10" viewBox="0 0 18 10" fill="none">
            <path d="M1 1L9 9L17 1" stroke="var(--grey-4)" stroke-width="2" stroke-linecap="round" stroke-linejoin="round"/>
        </symbol>
        <symbol id="icon-help" width="24" height="24" viewBox="0 0 24 24" fill="none" xmlns="http://www.w3.org/2000/svg">
            <path fill-rule="evenodd" clip-rule="evenodd" d="M12 3C7.02944 3 3 7.02944 3 12C3 16.9706 7.02944 21 12 21C16.9706 21 21 16.9706 21 12C21 7.02944 16.9706 3 12 3ZM1 12C1 5.92487 5.92487 1 12 1C18.0751 1 23 5.92487 23 12C23 18.0751 18.0751 23 12 23C5.92487 23 1 18.0751 1 12Z" fill="var(--black)"/>
            <path fill-rule="evenodd" clip-rule="evenodd" d="M12.2582 8.02428C11.7927 7.94443 11.314 8.03191 10.9068 8.27123C10.4996 8.51054 10.1902 8.88625 10.0335 9.3318C9.85018 9.85279 9.27926 10.1266 8.75827 9.9433C8.23728 9.76002 7.96351 9.18911 8.14678 8.66812C8.46025 7.77701 9.07898 7.02559 9.89339 6.54696C10.7078 6.06833 11.6653 5.89337 12.5964 6.05307C13.5274 6.21277 14.3719 6.69682 14.9802 7.41949C15.5884 8.14201 15.9214 9.05644 15.9201 10.0009C15.9197 11.5312 14.7851 12.5419 13.9748 13.082C13.5392 13.3724 13.1107 13.586 12.795 13.7263C12.6358 13.7971 12.5016 13.8508 12.405 13.8876C12.3566 13.906 12.3174 13.9203 12.2888 13.9305L12.2541 13.9426L12.243 13.9464L12.2391 13.9477L12.2376 13.9482C12.2373 13.9483 12.2363 13.9486 11.9201 13L12.2363 13.9486C11.7124 14.1233 11.1461 13.8401 10.9714 13.3162C10.7969 12.7926 11.0796 12.2267 11.6028 12.0516L11.6016 12.0521C11.6017 12.052 11.6018 12.052 11.6028 12.0516L11.6188 12.046C11.6342 12.0406 11.6594 12.0314 11.693 12.0186C11.7605 11.9929 11.8607 11.9529 11.9827 11.8986C12.2296 11.7889 12.551 11.6275 12.8654 11.4179C13.555 10.9582 13.9201 10.4691 13.9201 9.99996L13.9201 9.99847C13.9208 9.52615 13.7543 9.06883 13.4502 8.70749C13.146 8.34615 12.7238 8.10413 12.2582 8.02428Z" fill="var(--black)"/>
            <path fill-rule="evenodd" clip-rule="evenodd" d="M12 15C12.5523 15 13 15.4477 13 16V16.5C13 17.0523 12.5523 17.5 12 17.5C11.4477 17.5 11 17.0523 11 16.5V16C11 15.4477 11.4477 15 12 15Z" fill="var(--black)"/>
        </symbol>
        <symbol id="icon-close" width="24" height="24" viewBox="0 0 24 24" fill="none">
            <path fill-rule="evenodd" clip-rule="evenodd" d="M18.7071 5.29289C19.0976 5.68342 19.0976 6.31658 18.7071 6.70711L6.70711 18.7071C6.31658 19.0976 5.68342 19.0976 5.29289 18.7071C4.90237 18.3166 4.90237 17.6834 5.29289 17.2929L17.2929 5.29289C17.6834 4.90237 18.3166 4.90237 18.7071 5.29289Z" fill="var(--black)"/>
            <path fill-rule="evenodd" clip-rule="evenodd" d="M5.29289 5.29289C5.68342 4.90237 6.31658 4.90237 6.70711 5.29289L18.7071 17.2929C19.0976 17.6834 19.0976 18.3166 18.7071 18.7071C18.3166 19.0976 17.6834 19.0976 17.2929 18.7071L5.29289 6.70711C4.90237 6.31658 4.90237 5.68342 5.29289 5.29289Z" fill="var(--black)"/>
        </symbol>
        <symbol id="icon-check" width="15" height="13" viewBox="0 0 15 13" fill="none">
            <path d="M1.5 7.5L5 11L13 2" stroke="var(--white)" stroke-width="3" stroke-linecap="round" stroke-linejoin="round"/>
        </symbol>
        <symbol id="icon-check-circle" width="24" height="24" viewBox="0 0 24 24" fill="none">
            <path d="M22 11.08V12C21.9988 14.1564 21.3005 16.2547 20.0093 17.9818C18.7182 19.709 16.9033 20.9725 14.8354 21.5839C12.7674 22.1953 10.5573 22.1219 8.53447 21.3746C6.51168 20.6273 4.78465 19.2461 3.61096 17.4371C2.43727 15.628 1.87979 13.4881 2.02168 11.3363C2.16356 9.18457 2.99721 7.13633 4.39828 5.49707C5.79935 3.85782 7.69279 2.71538 9.79619 2.24015C11.8996 1.76491 14.1003 1.98234 16.07 2.86" stroke="var(--success)" stroke-width="2" stroke-linecap="round" stroke-linejoin="round"/>
            <path d="M22 4L12 14.01L9 11.01" stroke="var(--success)" stroke-width="2" stroke-linecap="round" stroke-linejoin="round"/>
        </symbol>
        <symbol id="icon-alert-triangle" width="24" height="24" viewBox="0 0 24 24" fill="none">
            <path d="M10.29 3.86001L1.82 18C1.64537 18.3024 1.55296 18.6453 1.55199 18.9945C1.55101 19.3437 1.64149 19.6871 1.81442 19.9905C1.98736 20.2939 2.23672 20.5468 2.53771 20.7239C2.83869 20.901 3.1808 20.9962 3.53 21H20.47C20.8192 20.9962 21.1613 20.901 21.4623 20.7239C21.7633 20.5468 22.0126 20.2939 22.1856 19.9905C22.3585 19.6871 22.449 19.3437 22.448 18.9945C22.447 18.6453 22.3546 18.3024 22.18 18L13.71 3.86001C13.5317 3.56611 13.2807 3.32313 12.9812 3.15449C12.6817 2.98585 12.3437 2.89726 12 2.89726C11.6563 2.89726 11.3183 2.98585 11.0188 3.15449C10.7193 3.32313 10.4683 3.56611 10.29 3.86001V3.86001Z" stroke="var(--error)" stroke-width="2" stroke-linecap="round" stroke-linejoin="round"/>
            <path d="M12 9V13" stroke="var(--error)" stroke-width="2" stroke-linecap="round" stroke-linejoin="round"/>
            <path d="M12 16V16.5" stroke="var(--error)" stroke-width="2" stroke-linecap="round" stroke-linejoin="round"/>
        </symbol>
        <symbol id="icon-sun" width="24" height="24" viewBox="0 0 24 24" fill="none">
            <path d="M12 17C14.7614 17 17 14.7614 17 12C17 9.23858 14.7614 7 12 7C9.23858 7 7 9.23858 7 12C7 14.7614 9.23858 17 12 17Z" stroke="#495057" stroke-width="2" stroke-linecap="round" stroke-linejoin="round"/>
            <path d="M12 1V3" stroke="#495057" stroke-width="2" stroke-linecap="round" stroke-linejoin="round"/>
            <path d="M12 21V23" stroke="#495057" stroke-width="2" stroke-linecap="round" stroke-linejoin="round"/>
            <path d="M4.22021 4.21997L5.64021 5.63997" stroke="#495057" stroke-width="2" stroke-linecap="round" stroke-linejoin="round"/>
            <path d="M18.3599 18.36L19.7799 19.78" stroke="#495057" stroke-width="2" stroke-linecap="round" stroke-linejoin="round"/>
            <path d="M1 12H3" stroke="#495057" stroke-width="2" stroke-linecap="round" stroke-linejoin="round"/>
            <path d="M21 12H23" stroke="#495057" stroke-width="2" stroke-linecap="round" stroke-linejoin="round"/>
            <path d="M4.22021 19.78L5.64021 18.36" stroke="#495057" stroke-width="2" stroke-linecap="round" stroke-linejoin="round"/>
            <path d="M18.3599 5.63997L19.7799 4.21997" stroke="#495057" stroke-width="2" stroke-linecap="round" stroke-linejoin="round"/>
        </symbol>
        <symbol id="icon-moon" width="24" height="24" viewBox="0 0 24 24" fill="none">
            <path d="M20.9999 12.79C20.8426 14.4922 20.2038 16.1144 19.1581 17.4668C18.1125 18.8192 16.7034 19.8458 15.0956 20.4265C13.4878 21.0073 11.7479 21.1181 10.0794 20.7461C8.41092 20.3741 6.8829 19.5345 5.67413 18.3258C4.46536 17.117 3.62584 15.589 3.25381 13.9205C2.88178 12.252 2.99262 10.5121 3.57336 8.9043C4.15411 7.29651 5.18073 5.88737 6.53311 4.84175C7.8855 3.79614 9.5077 3.15731 11.2099 3C10.2133 4.34827 9.73375 6.00945 9.85843 7.68141C9.98312 9.35338 10.7038 10.9251 11.8893 12.1106C13.0748 13.2961 14.6465 14.0168 16.3185 14.1415C17.9905 14.2662 19.6516 13.7866 20.9999 12.79V12.79Z" stroke="#ACB5BD" stroke-width="2" stroke-linecap="round" stroke-linejoin="round"/>
        </symbol>
    </defs>
</svg>